HIERARCHY
ROOT Hips
{
	OFFSET 0.00000 0.00000 0.00000
	CHANNELS 6 Xposition Yposition Zposition Zrotation Yrotation Xrotation 
	JOINT LHipJoint
	{
		OFFSET 0 0 0
		CHANNELS 3 Zrotation Yrotation Xrotation
		JOINT LeftUpLeg
		{
			OFFSET 1.58895 -1.83665 0.71753
			CHANNELS 3 Zrotation Yrotation Xrotation
			JOINT LeftLeg
			{
				OFFSET 2.50528 -6.88321 0.00000
				CHANNELS 3 Zrotation Yrotation Xrotation
				JOINT LeftFoot
				{
					OFFSET 2.63244 -7.23257 0.00000
					CHANNELS 3 Zrotation Yrotation Xrotation
					JOINT LeftToeBase
					{
						OFFSET 0.23691 -0.65090 1.72750
						CHANNELS 3 Zrotation Yrotation Xrotation
						End Site
						{
							OFFSET 0.00000 -0.00000 0.92561
						}
					}
				}
			}
		}
	}
	JOINT RHipJoint
	{
		OFFSET 0 0 0
		CHANNELS 3 Zrotation Yrotation Xrotation
		JOINT RightUpLeg
		{
			OFFSET -1.51435 -1.83665 0.71753
			CHANNELS 3 Zrotation Yrotation Xrotation
			JOINT RightLeg
			{
				OFFSET -2.54551 -6.99375 0.00000
				CHANNELS 3 Zrotation Yrotation Xrotation
				JOINT RightFoot
				{
					OFFSET -2.66027 -7.30903 0.00000
					CHANNELS 3 Zrotation Yrotation Xrotation
					JOINT RightToeBase
					{
						OFFSET -0.22981 -0.63138 2.03959
						CHANNELS 3 Zrotation Yrotation Xrotation
						End Site
						{
							OFFSET -0.00000 -0.00000 1.07060
						}
					}
				}
			}
		}
	}
	JOINT LowerBack
	{
		OFFSET 0 0 0
		CHANNELS 3 Zrotation Yrotation Xrotation
		JOINT Spine
		{
			OFFSET -0.02651 1.86275 -0.11152
			CHANNELS 3 Zrotation Yrotation Xrotation
			JOINT Spine1
			{
				OFFSET 0.01019 1.86224 0.04087
				CHANNELS 3 Zrotation Yrotation Xrotation
				JOINT Neck
				{
					OFFSET 0 0 0
					CHANNELS 3 Zrotation Yrotation Xrotation
					JOINT Neck1
					{
						OFFSET -0.01926 1.80512 0.08867
						CHANNELS 3 Zrotation Yrotation Xrotation
						JOINT Head
						{
							OFFSET 0.05516 1.76451 -0.38475
							CHANNELS 3 Zrotation Yrotation Xrotation
							End Site
							{
								OFFSET 0.01592 1.82587 -0.14001
							}
						}
					}
				}
				JOINT LeftShoulder
				{
					OFFSET 0 0 0
					CHANNELS 3 Zrotation Yrotation Xrotation
					JOINT LeftArm
					{
						OFFSET 3.47116 1.51376 0.14491
						CHANNELS 3 Zrotation Yrotation Xrotation
						JOINT LeftForeArm
						{
							OFFSET 4.78095 -0.00000 0.00000
							CHANNELS 3 Zrotation Yrotation Xrotation
							JOINT LeftHand
							{
								OFFSET 3.58615 -0.00000 -0.00000
								CHANNELS 3 Zrotation Yrotation Xrotation
								JOINT LeftFingerBase
								{
									OFFSET 0 0 0
									CHANNELS 3 Zrotation Yrotation Xrotation
									JOINT LeftHandIndex1
									{
										OFFSET 0.65981 -0.00000 0.00000
										CHANNELS 3 Zrotation Yrotation Xrotation
										End Site
										{
											OFFSET 0.53196 -0.00000 0.00000
										}
									}
								}
								JOINT LThumb
								{
									OFFSET 0 0 0
									CHANNELS 3 Zrotation Yrotation Xrotation
									End Site
									{
										OFFSET 0.54008 -0.00000 0.54008
									}
								}
							}
						}
					}
				}
				JOINT RightShoulder
				{
					OFFSET 0 0 0
					CHANNELS 3 Zrotation Yrotation Xrotation
					JOINT RightArm
					{
						OFFSET -3.31725 1.61216 0.35156
						CHANNELS 3 Zrotation Yrotation Xrotation
						JOINT RightForeArm
						{
							OFFSET -4.48913 -0.00000 0.00000
							CHANNELS 3 Zrotation Yrotation Xrotation
							JOINT RightHand
							{
								OFFSET -3.70510 -0.00000 0.00000
								CHANNELS 3 Zrotation Yrotation Xrotation
								JOINT RightFingerBase
								{
									OFFSET 0 0 0
									CHANNELS 3 Zrotation Yrotation Xrotation
									JOINT RightHandIndex1
									{
										OFFSET -0.44914 -0.00000 0.00000
										CHANNELS 3 Zrotation Yrotation Xrotation
										End Site
										{
											OFFSET -0.36211 -0.00000 0.00000
										}
									}
								}
								JOINT RThumb
								{
									OFFSET 0 0 0
									CHANNELS 3 Zrotation Yrotation Xrotation
									End Site
									{
										OFFSET -0.36763 -0.00000 0.36763
									}
								}
							}
						}
					}
				}
			}
		}
	}
}
MOTION
Frames: 9
Frame Time: .0083333
-1.4743 18.6526 6.1574 -6.7742 16.5077 3.5209 0.0000 0.0000 0.0000 -3.4344 -23.8041 -4.0663 1.5582 7.8778 22.3437 1.4595 8.4024 -27.2356 8.7996 -16.6770 -55.3943 0.0000 0.0000 0.0000 0.0000 0.0000 0.0000 0.0000 0.0000 0.0000 -0.0000 -0.0000 0.0000 -0.0000 -0.0000 0.0000 -12.4434 3.9195 2.6353 -9.0127 4.3881 -2.3880 -2.8673 2.4061 -4.2465 6.2201 5.3334 -14.7539 7.2022 4.1491 27.5070 2.2020 3.4992 11.4409 -0.0000 -0.0000 0.0000 -50.5955 2.4716 -51.8817 20.8415 -31.6429 -5.9666 -0.0000 0.0000 -18.6763 36.2749 -12.4559 -8.9949 -7.1250 0.0000 -0.0000 6.1498 14.7189 -4.4114 -0.0000 -0.0000 0.0000 71.4176 67.8852 98.1835 -137.0305 49.7340 -99.3226 0.0000 -0.0000 -44.7691 3.9450 -33.0236 -2.1523 7.1250 -0.0000 -0.0000 40.1936 -58.1928 -14.4723
-1.4785 18.6526 6.1579 -6.6470 16.2562 3.6148 0.0000 0.0000 0.0000 -3.5597 -23.6818 -4.0457 1.5521 7.8632 22.2992 1.4592 8.5009 -27.3012 8.7709 -16.6580 -55.2944 0.0000 0.0000 0.0000 0.0000 0.0000 0.0000 0.0000 0.0000 0.0000 -0.0000 -0.0000 0.0000 -0.0000 -0.0000 0.0000 -12.4889 3.9070 2.6563 -9.0272 4.3380 -2.5683 -2.8705 2.3927 -4.4531 6.0840 5.1787 -14.8545 7.2931 3.9278 27.3937 2.2250 3.3943 11.4132 0.0000 -0.0000 0.0000 -49.3439 0.5376 -52.9741 20.7343 -31.5168 -5.9104 -0.0000 0.0000 -18.7461 36.3529 -12.7617 -9.2343 -7.1250 0.0000 -0.0000 6.1578 14.3368 -4.4676 0.0000 -0.0000 0.0000 69.8592 67.5606 96.3579 -137.7843 49.3292 -99.8960 0.0000 -0.0000 -44.7809 3.3395 -32.6726 -1.8043 7.1250 -0.0000 -0.0000 39.2806 -58.0526 -13.9346
-1.4779 18.6523 6.1592 -6.5347 15.9662 3.6612 0.0000 0.0000 0.0000 -3.7421 -23.6858 -3.8807 1.5444 7.8446 22.2432 1.4678 8.7179 -27.5143 8.7419 -16.6387 -55.1932 0.0000 0.0000 0.0000 0.0000 0.0000 0.0000 0.0000 0.0000 0.0000 -0.0000 -0.0000 0.0000 -0.0000 -0.0000 0.0000 -12.4789 3.8708 2.6934 -9.0475 4.2581 -2.7331 -2.9067 2.3622 -4.6459 5.9597 5.0597 -14.9576 7.4283 3.7434 27.2539 2.2666 3.3118 11.3758 0.0000 0.0000 0.0000 -48.2030 -1.1713 -53.8501 20.6833 -31.4568 -5.8838 -0.0000 0.0000 -18.8540 36.2540 -12.9326 -9.3205 -7.1250 0.0000 -0.0000 6.0668 14.1485 -4.4252 0.0000 0.0000 0.0000 68.6456 67.2139 94.9241 -138.5465 48.9078 -100.4723 0.0000 -0.0000 -44.6689 2.8698 -32.3354 -1.5359 7.1250 -0.0000 -0.0000 38.5130 -57.8899 -13.4488
-1.4765 18.6532 6.1605 -6.4787 15.7220 3.7198 0.0000 0.0000 0.0000 -3.8507 -23.7499 -3.7471 1.5366 7.8257 22.1859 1.4867 8.8898 -27.7677 8.7235 -16.6265 -55.1291 0.0000 0.0000 0.0000 0.0000 0.0000 0.0000 0.0000 0.0000 0.0000 -0.0000 -0.0000 0.0000 -0.0000 -0.0000 0.0000 -12.4359 3.8000 2.6772 -9.0405 4.1472 -2.8856 -2.9229 2.3143 -4.7929 5.9360 4.9513 -15.1042 7.5007 3.5570 27.1698 2.2725 3.2328 11.3741 -0.0000 0.0000 0.0000 -47.1046 -2.8507 -54.6324 20.6245 -31.3874 -5.8532 -0.0000 0.0000 -19.1095 36.3767 -13.3215 -9.6331 -7.1250 0.0000 -0.0000 6.0915 13.6584 -4.5069 -0.0000 0.0000 0.0000 67.6761 66.9140 93.7578 -139.2082 48.5321 -100.9696 0.0000 -0.0000 -44.5132 2.3705 -31.9518 -1.2550 7.1250 -0.0000 -0.0000 37.6788 -57.6935 -12.9137
-1.4763 18.6546 6.1614 -6.4550 15.5266 3.8010 0.0000 0.0000 0.0000 -3.8928 -23.7899 -3.6933 1.5298 7.8091 22.1359 1.4960 9.0353 -27.9357 8.7106 -16.6179 -55.0839 0.0000 0.0000 0.0000 0.0000 0.0000 0.0000 0.0000 0.0000 0.0000 -0.0000 -0.0000 0.0000 -0.0000 -0.0000 0.0000 -12.4065 3.7354 2.6106 -8.9715 4.0573 -3.0246 -2.8619 2.2766 -4.9030 5.8829 4.8110 -15.3087 7.5269 3.3352 27.1891 2.2676 3.1331 11.4240 -0.0000 0.0000 0.0000 -46.1194 -4.6981 -55.4660 20.5736 -31.3272 -5.8266 -0.0000 0.0000 -19.6126 36.7855 -13.7921 -10.1069 -7.1250 0.0000 -0.0000 6.2918 13.0148 -4.7426 -0.0000 0.0000 0.0000 66.4742 66.6260 92.3875 -139.8579 48.1539 -101.4550 0.0000 -0.0000 -44.4551 1.9368 -31.5858 -1.0147 7.1250 -0.0000 -0.0000 36.9292 -57.4934 -12.4217
-1.4728 18.6558 6.1618 -6.4023 15.3138 3.8770 0.0000 0.0000 0.0000 -3.9970 -23.8386 -3.5955 1.5214 7.7885 22.0735 1.5029 9.2418 -28.1307 8.6834 -16.5996 -54.9888 0.0000 0.0000 0.0000 0.0000 0.0000 0.0000 0.0000 0.0000 0.0000 -0.0000 -0.0000 0.0000 -0.0000 -0.0000 0.0000 -12.3447 3.6988 2.5579 -8.9125 4.0017 -3.1762 -2.8340 2.2556 -5.0329 5.6797 4.6590 -15.4347 7.6983 3.1093 27.1684 2.3354 3.0327 11.4359 -0.0000 -0.0000 0.0000 -45.2431 -6.7142 -56.6204 20.6045 -31.3638 -5.8427 -0.0000 0.0000 -20.1958 37.1016 -14.1815 -10.4977 -7.1250 0.0000 -0.0000 6.4399 12.4830 -4.9276 -0.0000 -0.0000 0.0000 65.1183 66.2659 90.8142 -140.5533 47.7387 -101.9713 0.0000 -0.0000 -44.4978 1.7150 -31.2743 -0.8905 7.1250 -0.0000 -0.0000 36.4353 -57.2894 -12.0377
-1.4678 18.6567 6.1605 -6.3029 15.0880 3.9609 0.0000 0.0000 0.0000 -4.1530 -23.8384 -3.5026 1.5096 7.7598 21.9868 1.5098 9.4206 -28.3061 8.6578 -16.5824 -54.8989 0.0000 0.0000 0.0000 0.0000 0.0000 0.0000 0.0000 0.0000 0.0000 -0.0000 -0.0000 0.0000 -0.0000 -0.0000 0.0000 -12.3082 3.6616 2.5089 -8.8855 3.9398 -3.3473 -2.8284 2.2328 -5.1856 5.4393 4.5391 -15.4669 8.0201 2.9095 27.1568 2.4661 2.9592 11.4303 0.0000 0.0000 0.0000 -44.4199 -8.7591 -58.0313 20.6863 -31.4604 -5.8854 -0.0000 0.0000 -20.6821 37.1088 -14.4889 -10.7181 -7.1250 0.0000 -0.0000 6.3962 12.1104 -4.9436 0.0000 0.0000 0.0000 63.7815 65.9019 89.2107 -141.2278 47.3254 -102.4689 0.0000 -0.0000 -44.5677 1.4655 -30.8164 -0.7509 7.1250 -0.0000 -0.0000 35.7897 -56.9701 -11.4979
-1.4648 18.6567 6.1590 -6.2156 14.8844 4.0423 0.0000 0.0000 0.0000 -4.2821 -23.8339 -3.4171 1.4968 7.7283 21.8918 1.5230 9.5306 -28.4763 8.6378 -16.5689 -54.8289 0.0000 0.0000 0.0000 0.0000 0.0000 0.0000 0.0000 0.0000 0.0000 -0.0000 -0.0000 0.0000 -0.0000 -0.0000 0.0000 -12.3328 3.6114 2.4222 -8.8112 3.8682 -3.5047 -2.7348 2.2071 -5.3095 5.2076 4.4261 -15.5127 8.3330 2.7136 27.2389 2.5978 2.8904 11.4652 0.0000 -0.0000 0.0000 -43.7377 -10.7518 -59.5197 20.8132 -31.6097 -5.9518 -0.0000 0.0000 -21.1605 36.8849 -14.7826 -10.8392 -7.1250 0.0000 -0.0000 6.2033 11.8025 -4.8325 0.0000 -0.0000 0.0000 62.3292 65.6251 87.5918 -141.8297 46.9477 -102.9101 0.0000 -0.0000 -44.6163 0.8682 -30.2224 -0.4370 7.1250 -0.0000 -0.0000 34.7099 -56.6073 -10.7724
-1.4598 18.6566 6.1578 -6.1366 14.7162 4.1281 0.0000 0.0000 0.0000 -4.4010 -23.8373 -3.3432 1.4850 7.6991 21.8038 1.5446 9.5810 -28.6592 8.5972 -16.5414 -54.6863 0.0000 0.0000 0.0000 0.0000 0.0000 0.0000 0.0000 0.0000 0.0000 -0.0000 -0.0000 0.0000 -0.0000 -0.0000 0.0000 -12.3378 3.5755 2.2948 -8.7317 3.8248 -3.6640 -2.6455 2.1943 -5.4119 5.1087 4.2412 -15.4578 8.4092 2.4521 27.3023 2.6064 2.7734 11.4815 -0.0000 -0.0000 0.0000 -43.0931 -12.6716 -60.8265 20.9404 -31.7587 -6.0185 -0.0000 0.0000 -22.0673 36.7361 -15.1849 -11.0616 -7.1250 0.0000 -0.0000 6.0426 11.3501 -4.7625 -0.0000 -0.0000 0.0000 60.8031 65.3028 85.9028 -142.3341 46.6246 -103.2777 0.0000 -0.0000 -44.7272 0.3991 -29.6411 -0.1974 7.1250 -0.0000 -0.0000 33.7783 -56.2215 -10.1054
